<?xml version="1.0" encoding="utf-8"?>
<!-- Generator: Adobe Illustrator 23.0.1, SVG Export Plug-In . SVG Version: 6.00 Build 0)  -->
<svg version="1.1" id="Layer_1" xmlns="http://www.w3.org/2000/svg" xmlns:xlink="http://www.w3.org/1999/xlink" x="0px" y="0px"
	 viewBox="0 0 1000 1000" style="enable-background:new 0 0 1000 1000;" xml:space="preserve">
<style type="text/css">
	.st0{fill-rule:evenodd;clip-rule:evenodd;fill:#0EA9E0;}
</style>
<g>
	<path class="st0" d="M655.2,313.4c-9.3,0-16.8,1.9-22.4,9.3c-5.5,5.5-9.3,12.9-9.3,22.3c0,243.7,0,243.7,0,243.7
		c0,9.2,3.7,16.7,9.3,22.3c5.6,7.4,13,9.3,22.4,9.3c7.4,0,14.9-1.9,22.3-9.3c5.6-5.6,7.4-13,7.4-22.3c0-243.7,0-243.7,0-243.7
		c0-9.3-1.8-16.7-7.4-22.3C670.1,315.3,662.6,313.4,655.2,313.4z M839.4,551.4c-7.4,9.2-16.7,15-29.7,15c-13,0-24.2-5.7-31.6-15
		c-7.4-11.2-11.1-24.1-11.1-39c0-14.8,3.7-26,11.1-37.1c7.4-9.4,18.6-15,31.6-15c13,0,22.3,5.6,29.7,15
		c9.5,11.1,13.2,22.3,13.2,37.1C852.6,527.3,848.9,540.2,839.4,551.4z M886,434.3c-20.5-22.3-46.7-33.5-76.4-33.5
		c-31.6,0-55.8,11.2-76.2,31.6c-18.6,22.3-28,48.5-28,80c0,31.6,9.4,59.6,28,80c20.5,22.3,44.6,33.4,76.2,33.4
		c29.7,0,55.9-11.1,76.4-33.4c18.6-20.4,27.9-48.5,27.9-80C913.9,480.9,904.6,454.7,886,434.3z M524.9,551.4
		c-7.4,9.2-18.6,15-31.6,15c-13,0-24.1-5.7-31.6-15c-7.6-11.2-11.3-24.1-11.3-39c0-14.8,3.7-26,11.3-37.1c7.5-9.4,18.6-15,31.6-15
		c13,0,24.2,5.6,31.6,15c7.4,11.1,11.2,22.3,11.2,37.1C536.1,527.3,532.3,540.2,524.9,551.4z M565.8,404.5c-13,0-22.3,7.5-27.9,20.4
		c-13-16.7-31.6-24.1-53.9-24.1c-26.1,0-50.4,11.2-67.1,33.5c-18.6,20.4-27.9,46.6-27.9,78.1c0,31.6,9.3,57.7,27.9,80
		c16.7,22.3,41.1,33.4,67.1,33.4c22.3,0,40.9-9.3,53.9-24.1c5.6,13,14.9,18.6,27.9,18.6c9.3,0,16.8-1.9,22.5-9.3
		c5.5-5.6,9.3-13,9.3-22.3c0-152.6,0-152.6,0-152.6c0-7.4-3.7-14.8-9.3-22.3C582.6,408.2,575.1,404.5,565.8,404.5z M331.4,294.9
		c-292.3,0-292.3,0-292.3,0c-22.4,0-39,16.7-39,39c0,284.5,0,284.5,0,284.5c0,20.4,16.7,37.3,39,37.3c0,0,20.5,0,54.1,0
		c0,13,0,35.3,0,46.4c0,3.7,5.5,3.7,7.4,1.9c16.7-14.8,65-48.3,65-48.3c165.8,0,165.8,0,165.8,0c20.5,0,37.2-16.8,37.2-37.3
		c0-7.4,0-7.4,0-7.4c-9.3,7.4-22.4,9.3-22.4,9.3s-182.5,0-193.7,0c-11.1,0-29.7-5.6-33.4-24.1c-1.9-18.6,7.4-26,7.4-26
		c119.1-161.8,119.1-161.8,119.1-161.8c-89.3,0-89.3,0-89.3,0s-33.5-1.8-33.5-41c0-39,39-39,39-39s161.9,0,186.2,0
		c9.3,0,14.9,1.9,20.5,5.6l0,0C368.6,311.6,351.8,294.9,331.4,294.9z M344.4,545.8c11.1,0,18.6,1.9,24.2,7.4
		c0-172.8,0-172.8,0-172.8c-121,165.4-121,165.4-121,165.4S329.5,545.8,344.4,545.8z"/>
	<path class="st0" d="M973.6,356.1c-35.5-48.2-91.2-42.7-91.2-42.7s-5.6,3.7-5.6,7.4c1.9,5.6,5.6,5.6,5.6,5.6s48.4-5.6,80,37.1
		c29.9,39.2,24.3,74.4,22.5,76.3c0,3.8,3.7,9.3,7.4,9.3c5.5,0,7.4-7.4,7.4-7.4S1005.2,400.8,973.6,356.1z M884.2,346.9
		c0,0-7.5,1.8-7.5,5.5c0,5.6,5.6,7.4,5.6,7.4s35.3-3.7,53.9,20.6c20.5,24.1,18.6,57.5,18.6,59.3c0,3.8,1.8,7.5,5.5,7.5
		c5.6,0,7.4-5.6,7.4-5.6s2-39-20.5-66.8C925.1,345,884.2,346.9,884.2,346.9z M887.9,376.7c0,0-7.5,0-7.5,7.4
		c1.9,3.7,5.6,7.4,5.6,7.4s22.3,0,31.6,14.8c7.4,13,5.6,29.7,5.6,29.7s1.8,7.5,5.5,7.5c5.6,1.8,9.3-5.6,9.3-5.6s1.8-20.4-11.1-39
		C913.9,378.6,887.9,376.7,887.9,376.7z"/>
</g>
</svg>
